<?xml version="1.0" encoding="UTF-8"?>
<svg xmlns="http://www.w3.org/2000/svg" xmlns:xlink="http://www.w3.org/1999/xlink" width="375pt" height="374.999991pt" viewBox="0 0 375 374.999991" version="1.2">
<defs>
<clipPath id="clip1">
  <path d="M 110 130 L 243 130 L 243 208 L 110 208 Z M 110 130 "/>
</clipPath>
<clipPath id="clip2">
  <path d="M 99.105469 202.820312 L 208.609375 100.304688 L 275.757812 172.03125 L 166.253906 274.542969 Z M 99.105469 202.820312 "/>
</clipPath>
<clipPath id="clip3">
  <path d="M 166.390625 274.6875 L 275.894531 172.175781 L 208.746094 100.449219 L 99.242188 202.964844 Z M 166.390625 274.6875 "/>
</clipPath>
</defs>
<g id="surface1">
<g clip-path="url(#clip1)" clip-rule="nonzero">
<g clip-path="url(#clip2)" clip-rule="nonzero">
<g clip-path="url(#clip3)" clip-rule="nonzero">
<path style=" stroke:none;fill-rule:nonzero;fill:rgb(0%,76.078796%,79.60968%);fill-opacity:1;" d="M 232.175781 199.074219 C 231.195312 198.464844 229.480469 198.207031 229.765625 196.359375 C 229.585938 196.1875 229.433594 196.007812 229.273438 195.816406 C 228.757812 195.402344 228.148438 195.328125 227.414062 195.675781 C 226.492188 196.285156 225.558594 196.53125 224.578125 195.816406 C 220.210938 193.949219 218.515625 190.796875 219.0625 185.964844 C 219.566406 181.472656 219.359375 176.894531 219.480469 172.28125 C 218.910156 172.382812 218.726562 172.359375 218.640625 172.4375 C 217.796875 173.226562 216.945312 174.007812 216.136719 174.835938 C 208.660156 182.480469 200.003906 188.554688 190.503906 193.34375 C 170.757812 203.324219 149.582031 207.21875 127.695312 207.882812 C 125.21875 207.960938 122.355469 208.417969 120.449219 205.824219 C 120.171875 205.453125 119.214844 205.488281 118.574219 205.515625 C 116.429688 205.605469 114.835938 204.421875 113.214844 203.285156 C 111.976562 202.417969 110.300781 201.457031 110.554688 199.980469 C 110.890625 197.980469 113.066406 198.1875 114.65625 198.027344 C 130.304688 196.382812 145.695312 193.546875 160.617188 188.402344 C 167.769531 185.097656 174.921875 181.808594 182.367188 179.199219 C 185.914062 176.652344 189.449219 174.09375 192.988281 171.554688 C 193.464844 171.105469 193.925781 170.65625 194.40625 170.207031 C 195.523438 168.964844 196.632812 167.730469 197.757812 166.496094 C 200.476562 164.363281 202.859375 162.113281 203.847656 158.5 C 204.324219 156.761719 206.148438 155.390625 207.378906 153.863281 C 207.378906 153.84375 207.371094 153.835938 207.371094 153.816406 C 207.34375 153.574219 207.269531 153.339844 207.171875 153.125 C 207.707031 152.660156 207.773438 152.078125 207.574219 151.421875 C 205.875 152.042969 204.183594 152.714844 202.464844 153.28125 C 194.519531 155.890625 194.519531 155.875 187.058594 153.316406 C 184.773438 152.527344 181.632812 149.691406 181.910156 148.449219 C 182.421875 146.121094 184.699219 145.765625 186.421875 144.976562 C 196.503906 140.328125 206.777344 136.167969 217.21875 132.402344 C 220.476562 131.234375 223.542969 130.515625 227.226562 131.246094 C 230.507812 131.886719 232.8125 133.390625 235.433594 135.132812 C 242.890625 140.085938 243.445312 140.734375 241.648438 149.085938 C 238.660156 163.023438 236.734375 177.117188 235.4375 191.300781 C 235.242188 193.4375 234.984375 195.582031 234.679688 197.714844 C 234.4375 199.183594 233.367188 199.804688 232.175781 199.074219 Z M 171.511719 187.671875 C 171.53125 187.65625 171.5625 187.648438 171.578125 187.628906 C 171.503906 187.644531 171.4375 187.671875 171.363281 187.6875 C 171.429688 187.679688 171.484375 187.664062 171.511719 187.671875 Z M 171.511719 187.671875 "/>
</g>
</g>
</g>
</g>
</svg>
