<?xml version="1.0" encoding="UTF-8"?>
<svg xmlns="http://www.w3.org/2000/svg" xmlns:xlink="http://www.w3.org/1999/xlink" width="1012.5pt" height="2024.999923pt" viewBox="0 0 1012.5 2024.999923" version="1.2">
<defs>
<clipPath id="clip1">
  <path d="M 0 0.5 L 1012 0.5 L 1012 2024.5 L 0 2024.5 Z M 0 0.5 "/>
</clipPath>
<clipPath id="clip2">
  <path d="M 860 0.5 L 1012 0.5 L 1012 289 L 860 289 Z M 860 0.5 "/>
</clipPath>
<clipPath id="clip3">
  <path d="M 821 629 L 1012 629 L 1012 931 L 821 931 Z M 821 629 "/>
</clipPath>
<clipPath id="clip4">
  <path d="M 901.3125 577.949219 L 1053.707031 648.660156 L 921.4375 933.71875 L 769.042969 863.007812 Z M 901.3125 577.949219 "/>
</clipPath>
<clipPath id="clip5">
  <path d="M 901.3125 577.949219 L 1053.707031 648.660156 L 921.4375 933.71875 L 769.042969 863.007812 Z M 901.3125 577.949219 "/>
</clipPath>
<clipPath id="clip6">
  <path d="M 592 1789 L 861 1789 L 861 2024.5 L 592 2024.5 Z M 592 1789 "/>
</clipPath>
<clipPath id="clip7">
  <path d="M 0 1977 L 48 1977 L 48 2024.5 L 0 2024.5 Z M 0 1977 "/>
</clipPath>
<clipPath id="clip8">
  <path d="M 669 0.5 L 939 0.5 L 939 165 L 669 165 Z M 669 0.5 "/>
</clipPath>
</defs>
<g id="surface1">
<g clip-path="url(#clip1)" clip-rule="nonzero">
<path style=" stroke:none;fill-rule:nonzero;fill:rgb(100%,100%,100%);fill-opacity:1;" d="M 0 0.5 L 1012.5 0.5 L 1012.5 2032.25 L 0 2032.25 Z M 0 0.5 "/>
<path style=" stroke:none;fill-rule:nonzero;fill:rgb(100%,100%,100%);fill-opacity:1;" d="M 0 0.5 L 1012.5 0.5 L 1012.5 2025.5 L 0 2025.5 Z M 0 0.5 "/>
<path style=" stroke:none;fill-rule:nonzero;fill:rgb(100%,100%,100%);fill-opacity:1;" d="M 0 0.5 L 1012.5 0.5 L 1012.5 2025.5 L 0 2025.5 Z M 0 0.5 "/>
</g>
<path style=" stroke:none;fill-rule:nonzero;fill:rgb(0%,76.078796%,79.60968%);fill-opacity:1;" d="M 101.25 164.5 C 96.691406 164.5 92.140625 164.609375 87.585938 164.835938 C 83.035156 165.058594 78.492188 165.394531 73.957031 165.839844 C 69.421875 166.285156 64.902344 166.84375 60.394531 167.511719 C 55.886719 168.179688 51.398438 168.960938 46.929688 169.847656 C 42.460938 170.738281 38.015625 171.738281 33.59375 172.84375 C 29.175781 173.949219 24.785156 175.164062 20.425781 176.488281 C 16.0625 177.8125 11.738281 179.242188 7.445312 180.777344 C 3.15625 182.3125 -1.09375 183.949219 -5.304688 185.695312 C -9.511719 187.4375 -13.679688 189.285156 -17.796875 191.230469 C -21.917969 193.179688 -25.984375 195.230469 -30.003906 197.375 C -34.023438 199.523438 -37.988281 201.769531 -41.894531 204.113281 C -45.804688 206.457031 -49.652344 208.894531 -53.441406 211.425781 C -57.230469 213.957031 -60.953125 216.578125 -64.613281 219.292969 C -68.273438 222.007812 -71.867188 224.8125 -75.390625 227.703125 C -78.910156 230.59375 -82.359375 233.566406 -85.738281 236.628906 C -89.113281 239.6875 -92.414062 242.828125 -95.636719 246.050781 C -98.855469 249.273438 -102 252.574219 -105.058594 255.949219 C -108.117188 259.324219 -111.09375 262.773438 -113.984375 266.296875 C -116.875 269.820312 -119.679688 273.410156 -122.394531 277.070312 C -125.109375 280.730469 -127.730469 284.457031 -130.261719 288.246094 C -132.792969 292.035156 -135.230469 295.882812 -137.574219 299.792969 C -139.917969 303.699219 -142.160156 307.664062 -144.308594 311.683594 C -146.457031 315.699219 -148.507812 319.769531 -150.453125 323.890625 C -152.402344 328.007812 -154.25 332.171875 -155.992188 336.382812 C -157.738281 340.59375 -159.375 344.84375 -160.910156 349.132812 C -162.445312 353.425781 -163.875 357.75 -165.199219 362.109375 C -166.519531 366.472656 -167.734375 370.863281 -168.84375 375.28125 C -169.949219 379.703125 -170.949219 384.148438 -171.835938 388.617188 C -172.726562 393.085938 -173.503906 397.574219 -174.171875 402.082031 C -174.84375 406.589844 -175.398438 411.109375 -175.847656 415.644531 C -176.292969 420.179688 -176.628906 424.722656 -176.851562 429.273438 C -177.074219 433.824219 -177.1875 438.378906 -177.1875 442.9375 C -177.1875 447.492188 -177.074219 452.046875 -176.851562 456.597656 C -176.628906 461.148438 -176.292969 465.695312 -175.847656 470.226562 C -175.398438 474.761719 -174.84375 479.285156 -174.171875 483.792969 C -173.503906 488.300781 -172.726562 492.789062 -171.835938 497.257812 C -170.949219 501.726562 -169.949219 506.171875 -168.84375 510.589844 C -167.734375 515.011719 -166.519531 519.402344 -165.199219 523.761719 C -163.875 528.125 -162.445312 532.449219 -160.910156 536.738281 C -159.375 541.03125 -157.738281 545.28125 -155.992188 549.488281 C -154.25 553.699219 -152.402344 557.863281 -150.453125 561.984375 C -148.507812 566.101562 -146.457031 570.171875 -144.308594 574.191406 C -142.160156 578.210938 -139.917969 582.171875 -137.574219 586.082031 C -135.230469 589.992188 -132.792969 593.839844 -130.261719 597.628906 C -127.730469 601.417969 -125.109375 605.140625 -122.394531 608.800781 C -119.679688 612.460938 -116.875 616.054688 -113.984375 619.574219 C -111.09375 623.097656 -108.117188 626.546875 -105.058594 629.925781 C -102 633.300781 -98.855469 636.597656 -95.636719 639.820312 C -92.414062 643.042969 -89.113281 646.183594 -85.738281 649.246094 C -82.359375 652.304688 -78.910156 655.28125 -75.390625 658.171875 C -71.867188 661.0625 -68.273438 663.863281 -64.613281 666.578125 C -60.953125 669.292969 -57.230469 671.917969 -53.441406 674.449219 C -49.652344 676.980469 -45.804688 679.417969 -41.894531 681.761719 C -37.988281 684.101562 -34.023438 686.347656 -30.003906 688.496094 C -25.984375 690.644531 -21.917969 692.691406 -17.796875 694.640625 C -13.679688 696.589844 -9.511719 698.433594 -5.304688 700.179688 C -1.09375 701.921875 3.15625 703.5625 7.445312 705.097656 C 11.738281 706.632812 16.0625 708.0625 20.425781 709.382812 C 24.785156 710.707031 29.175781 711.921875 33.59375 713.03125 C 38.015625 714.136719 42.460938 715.136719 46.929688 716.023438 C 51.398438 716.914062 55.886719 717.691406 60.394531 718.359375 C 64.902344 719.027344 69.421875 719.585938 73.957031 720.035156 C 78.492188 720.480469 83.035156 720.816406 87.585938 721.039062 C 92.140625 721.261719 96.691406 721.375 101.25 721.375 C 105.808594 721.375 110.359375 721.261719 114.914062 721.039062 C 119.464844 720.816406 124.007812 720.480469 128.542969 720.035156 C 133.078125 719.585938 137.597656 719.027344 142.105469 718.359375 C 146.613281 717.691406 151.101562 716.914062 155.570312 716.023438 C 160.039062 715.136719 164.484375 714.136719 168.90625 713.03125 C 173.324219 711.921875 177.714844 710.707031 182.074219 709.382812 C 186.4375 708.0625 190.761719 706.632812 195.050781 705.097656 C 199.34375 703.5625 203.59375 701.921875 207.804688 700.179688 C 212.011719 698.433594 216.179688 696.589844 220.296875 694.640625 C 224.417969 692.691406 228.484375 690.644531 232.503906 688.496094 C 236.523438 686.347656 240.488281 684.101562 244.394531 681.761719 C 248.304688 679.417969 252.152344 676.980469 255.941406 674.449219 C 259.730469 671.917969 263.453125 669.292969 267.113281 666.578125 C 270.773438 663.863281 274.367188 661.0625 277.890625 658.171875 C 281.410156 655.28125 284.859375 652.304688 288.238281 649.246094 C 291.613281 646.183594 294.914062 643.042969 298.136719 639.820312 C 301.355469 636.597656 304.5 633.300781 307.558594 629.925781 C 310.617188 626.546875 313.59375 623.097656 316.484375 619.574219 C 319.375 616.054688 322.179688 612.460938 324.894531 608.800781 C 327.609375 605.140625 330.230469 601.417969 332.761719 597.628906 C 335.292969 593.839844 337.730469 589.992188 340.074219 586.082031 C 342.417969 582.171875 344.660156 578.210938 346.808594 574.191406 C 348.957031 570.171875 351.007812 566.101562 352.953125 561.984375 C 354.902344 557.863281 356.75 553.699219 358.492188 549.488281 C 360.238281 545.28125 361.875 541.03125 363.410156 536.738281 C 364.945312 532.449219 366.375 528.125 367.699219 523.761719 C 369.019531 519.402344 370.234375 515.011719 371.34375 510.589844 C 372.449219 506.171875 373.449219 501.726562 374.335938 497.257812 C 375.226562 492.789062 376.003906 488.300781 376.671875 483.792969 C 377.34375 479.285156 377.898438 474.761719 378.347656 470.226562 C 378.792969 465.695312 379.128906 461.148438 379.351562 456.597656 C 379.574219 452.046875 379.6875 447.492188 379.6875 442.9375 C 379.6875 438.378906 379.574219 433.824219 379.351562 429.273438 C 379.128906 424.722656 378.792969 420.179688 378.347656 415.644531 C 377.898438 411.109375 377.34375 406.589844 376.671875 402.082031 C 376.003906 397.574219 375.226562 393.085938 374.335938 388.617188 C 373.449219 384.148438 372.449219 379.703125 371.34375 375.28125 C 370.234375 370.863281 369.019531 366.472656 367.699219 362.109375 C 366.375 357.75 364.945312 353.425781 363.410156 349.132812 C 361.875 344.84375 360.238281 340.59375 358.492188 336.382812 C 356.75 332.171875 354.902344 328.007812 352.953125 323.890625 C 351.007812 319.769531 348.957031 315.699219 346.808594 311.683594 C 344.660156 307.664062 342.417969 303.699219 340.074219 299.792969 C 337.730469 295.882812 335.292969 292.035156 332.761719 288.246094 C 330.230469 284.457031 327.609375 280.730469 324.894531 277.070312 C 322.179688 273.410156 319.375 269.820312 316.484375 266.296875 C 313.59375 262.773438 310.617188 259.324219 307.558594 255.949219 C 304.5 252.574219 301.355469 249.273438 298.136719 246.050781 C 294.914062 242.828125 291.613281 239.6875 288.238281 236.628906 C 284.859375 233.566406 281.410156 230.59375 277.890625 227.703125 C 274.367188 224.8125 270.773438 222.007812 267.113281 219.292969 C 263.453125 216.578125 259.730469 213.957031 255.941406 211.425781 C 252.152344 208.894531 248.304688 206.457031 244.394531 204.113281 C 240.488281 201.769531 236.523438 199.523438 232.503906 197.375 C 228.484375 195.230469 224.417969 193.179688 220.296875 191.230469 C 216.179688 189.285156 212.011719 187.4375 207.804688 185.695312 C 203.59375 183.949219 199.34375 182.3125 195.054688 180.777344 C 190.761719 179.242188 186.4375 177.8125 182.074219 176.488281 C 177.714844 175.164062 173.324219 173.949219 168.90625 172.84375 C 164.484375 171.738281 160.039062 170.738281 155.570312 169.847656 C 151.101562 168.960938 146.613281 168.179688 142.105469 167.511719 C 137.597656 166.84375 133.078125 166.285156 128.542969 165.839844 C 124.007812 165.394531 119.464844 165.058594 114.914062 164.835938 C 110.359375 164.609375 105.808594 164.5 101.25 164.5 Z M 101.25 164.5 "/>
<g clip-path="url(#clip2)" clip-rule="nonzero">
<path style=" stroke:none;fill-rule:nonzero;fill:rgb(13.729858%,12.159729%,12.548828%);fill-opacity:1;" d="M 1068.507812 -84.523438 L 1233.925781 123.351562 L 1026.050781 288.769531 L 860.632812 80.890625 Z M 1068.507812 -84.523438 "/>
</g>
<g clip-path="url(#clip3)" clip-rule="nonzero">
<g clip-path="url(#clip4)" clip-rule="nonzero">
<g clip-path="url(#clip5)" clip-rule="nonzero">
<path style=" stroke:none;fill-rule:nonzero;fill:rgb(100%,74.119568%,34.899902%);fill-opacity:1;" d="M 1044.667969 644.46875 C 965.949219 607.941406 872.238281 642.15625 835.773438 720.753906 C 799.304688 799.34375 833.683594 893 912.402344 929.527344 C 916.804688 931.566406 922.019531 929.664062 924.058594 925.269531 L 1048.949219 656.113281 C 1050.988281 651.71875 1049.070312 646.507812 1044.667969 644.46875 Z M 911.933594 909.6875 C 847.59375 874.828125 820.539062 795.300781 851.699219 728.144531 C 882.863281 660.984375 961.066406 630.292969 1029.21875 656.910156 Z M 911.933594 909.6875 "/>
</g>
</g>
</g>
<path style=" stroke:none;fill-rule:nonzero;fill:rgb(32.159424%,32.159424%,32.159424%);fill-opacity:1;" d="M 97.988281 698.804688 L -0.199219 790.398438 L 91.394531 888.589844 L 189.582031 796.996094 Z M 91.605469 882.542969 L 5.785156 790.542969 L 97.785156 704.726562 L 183.605469 796.722656 Z M 91.605469 882.542969 "/>
<g clip-path="url(#clip6)" clip-rule="nonzero">
<path style=" stroke:none;fill-rule:nonzero;fill:rgb(0%,76.078796%,79.60968%);fill-opacity:1;" d="M 726.4375 2058.539062 C 690.558594 2058.539062 656.769531 2044.570312 631.417969 2019.164062 C 606.007812 1993.8125 592.042969 1960.023438 592.042969 1924.140625 C 592.042969 1888.261719 606.007812 1854.472656 631.417969 1829.121094 C 656.769531 1803.710938 690.558594 1789.746094 726.4375 1789.746094 C 762.320312 1789.746094 796.109375 1803.710938 821.460938 1829.121094 C 846.867188 1854.527344 860.835938 1888.261719 860.835938 1924.140625 C 860.835938 1960.023438 846.867188 1993.8125 821.460938 2019.164062 C 796.109375 2044.570312 762.320312 2058.539062 726.4375 2058.539062 Z M 726.4375 1797.804688 C 692.707031 1797.804688 660.960938 1810.964844 637.109375 1834.8125 C 613.261719 1858.664062 600.101562 1890.410156 600.101562 1924.140625 C 600.101562 1957.875 613.261719 1989.621094 637.109375 2013.472656 C 660.960938 2037.320312 692.707031 2050.480469 726.4375 2050.480469 C 760.171875 2050.480469 791.917969 2037.320312 815.769531 2013.472656 C 839.617188 1989.621094 852.777344 1957.875 852.777344 1924.140625 C 852.777344 1890.410156 839.617188 1858.664062 815.769531 1834.8125 C 791.917969 1810.964844 760.171875 1797.804688 726.4375 1797.804688 Z M 726.4375 1797.804688 "/>
</g>
<path style=" stroke:none;fill-rule:nonzero;fill:rgb(49.409485%,85.099792%,34.118652%);fill-opacity:1;" d="M 800.46875 1722.785156 L 994.050781 1738.699219 L 978.140625 1932.28125 L 784.558594 1916.367188 Z M 800.46875 1722.785156 "/>
<path style=" stroke:none;fill-rule:nonzero;fill:rgb(0%,76.078796%,79.60968%);fill-opacity:1;" d="M 909.050781 577.945312 C 907.480469 577.945312 905.910156 578.023438 904.347656 578.179688 C 902.78125 578.332031 901.230469 578.5625 899.6875 578.871094 C 898.144531 579.175781 896.621094 579.558594 895.117188 580.015625 C 893.613281 580.46875 892.132812 581 890.683594 581.601562 C 889.230469 582.203125 887.808594 582.875 886.421875 583.613281 C 885.039062 584.355469 883.691406 585.164062 882.382812 586.035156 C 881.074219 586.910156 879.816406 587.84375 878.601562 588.84375 C 877.382812 589.839844 876.222656 590.894531 875.109375 592.007812 C 873.996094 593.117188 872.941406 594.28125 871.945312 595.496094 C 870.949219 596.710938 870.011719 597.972656 869.140625 599.28125 C 868.265625 600.585938 867.460938 601.933594 866.71875 603.320312 C 865.976562 604.707031 865.304688 606.125 864.703125 607.578125 C 864.101562 609.03125 863.574219 610.511719 863.117188 612.015625 C 862.660156 613.519531 862.277344 615.042969 861.972656 616.582031 C 861.664062 618.125 861.433594 619.679688 861.28125 621.242188 C 861.128906 622.808594 861.050781 624.375 861.050781 625.949219 C 861.050781 627.519531 861.128906 629.089844 861.28125 630.652344 C 861.433594 632.21875 861.664062 633.769531 861.972656 635.3125 C 862.277344 636.855469 862.660156 638.378906 863.117188 639.882812 C 863.574219 641.386719 864.101562 642.867188 864.703125 644.316406 C 865.304688 645.769531 865.976562 647.191406 866.71875 648.578125 C 867.460938 649.960938 868.265625 651.308594 869.140625 652.617188 C 870.011719 653.925781 870.949219 655.183594 871.945312 656.398438 C 872.941406 657.617188 873.996094 658.777344 875.109375 659.890625 C 876.222656 661.003906 877.382812 662.058594 878.601562 663.054688 C 879.816406 664.050781 881.074219 664.988281 882.382812 665.859375 C 883.691406 666.734375 885.039062 667.539062 886.421875 668.28125 C 887.808594 669.023438 889.230469 669.695312 890.683594 670.296875 C 892.132812 670.898438 893.613281 671.425781 895.117188 671.882812 C 896.621094 672.339844 898.144531 672.722656 899.6875 673.027344 C 901.230469 673.335938 902.78125 673.566406 904.347656 673.71875 C 905.910156 673.871094 907.480469 673.949219 909.050781 673.949219 C 910.625 673.949219 912.191406 673.871094 913.757812 673.71875 C 915.320312 673.566406 916.875 673.335938 918.417969 673.027344 C 919.957031 672.722656 921.480469 672.339844 922.984375 671.882812 C 924.488281 671.425781 925.96875 670.898438 927.421875 670.296875 C 928.875 669.695312 930.292969 669.023438 931.679688 668.28125 C 933.066406 667.539062 934.414062 666.734375 935.71875 665.859375 C 937.027344 664.988281 938.289062 664.050781 939.503906 663.054688 C 940.71875 662.058594 941.882812 661.003906 942.992188 659.890625 C 944.105469 658.777344 945.160156 657.617188 946.15625 656.398438 C 947.15625 655.183594 948.089844 653.925781 948.964844 652.617188 C 949.835938 651.308594 950.644531 649.960938 951.386719 648.578125 C 952.125 647.191406 952.796875 645.769531 953.398438 644.316406 C 954 642.867188 954.53125 641.386719 954.984375 639.882812 C 955.441406 638.378906 955.824219 636.855469 956.128906 635.3125 C 956.4375 633.769531 956.667969 632.21875 956.820312 630.652344 C 956.976562 629.089844 957.054688 627.519531 957.054688 625.949219 C 957.054688 624.375 956.976562 622.808594 956.820312 621.242188 C 956.667969 619.679688 956.4375 618.125 956.128906 616.582031 C 955.824219 615.042969 955.441406 613.519531 954.984375 612.015625 C 954.53125 610.511719 954 609.03125 953.398438 607.578125 C 952.796875 606.125 952.125 604.707031 951.386719 603.320312 C 950.644531 601.933594 949.835938 600.585938 948.964844 599.28125 C 948.089844 597.972656 947.15625 596.710938 946.15625 595.496094 C 945.160156 594.28125 944.105469 593.117188 942.992188 592.007812 C 941.882812 590.894531 940.71875 589.839844 939.503906 588.84375 C 938.289062 587.84375 937.027344 586.910156 935.71875 586.035156 C 934.414062 585.164062 933.066406 584.355469 931.679688 583.613281 C 930.292969 582.875 928.875 582.203125 927.421875 581.601562 C 925.96875 581 924.488281 580.46875 922.984375 580.015625 C 921.480469 579.558594 919.957031 579.175781 918.417969 578.871094 C 916.875 578.5625 915.320312 578.332031 913.757812 578.179688 C 912.191406 578.023438 910.625 577.945312 909.050781 577.945312 Z M 909.050781 577.945312 "/>
<g clip-path="url(#clip7)" clip-rule="nonzero">
<path style=" stroke:none;fill-rule:nonzero;fill:rgb(0%,76.078796%,79.60968%);fill-opacity:1;" d="M 0 1977.496094 C -1.570312 1977.496094 -3.140625 1977.574219 -4.703125 1977.730469 C -6.269531 1977.882812 -7.824219 1978.113281 -9.363281 1978.421875 C -10.90625 1978.726562 -12.429688 1979.109375 -13.933594 1979.566406 C -15.4375 1980.019531 -16.917969 1980.550781 -18.371094 1981.152344 C -19.820312 1981.753906 -21.242188 1982.425781 -22.628906 1983.164062 C -24.015625 1983.90625 -25.359375 1984.714844 -26.667969 1985.585938 C -27.976562 1986.460938 -29.238281 1987.394531 -30.453125 1988.394531 C -31.667969 1989.390625 -32.832031 1990.445312 -33.941406 1991.558594 C -35.054688 1992.667969 -36.109375 1993.832031 -37.105469 1995.046875 C -38.101562 1996.261719 -39.039062 1997.523438 -39.910156 1998.832031 C -40.785156 2000.136719 -41.59375 2001.484375 -42.332031 2002.871094 C -43.074219 2004.257812 -43.746094 2005.675781 -44.347656 2007.128906 C -44.949219 2008.582031 -45.476562 2010.0625 -45.933594 2011.566406 C -46.390625 2013.070312 -46.773438 2014.59375 -47.078125 2016.136719 C -47.386719 2017.675781 -47.617188 2019.230469 -47.769531 2020.792969 C -47.925781 2022.359375 -48 2023.925781 -48 2025.5 C -48 2027.070312 -47.925781 2028.640625 -47.769531 2030.203125 C -47.617188 2031.769531 -47.386719 2033.320312 -47.078125 2034.863281 C -46.773438 2036.40625 -46.390625 2037.929688 -45.933594 2039.433594 C -45.476562 2040.9375 -44.949219 2042.417969 -44.347656 2043.867188 C -43.746094 2045.320312 -43.074219 2046.742188 -42.332031 2048.128906 C -41.59375 2049.515625 -40.785156 2050.859375 -39.910156 2052.167969 C -39.039062 2053.476562 -38.101562 2054.734375 -37.105469 2055.953125 C -36.109375 2057.167969 -35.054688 2058.328125 -33.941406 2059.441406 C -32.832031 2060.554688 -31.667969 2061.609375 -30.453125 2062.605469 C -29.238281 2063.601562 -27.976562 2064.539062 -26.667969 2065.410156 C -25.359375 2066.285156 -24.015625 2067.09375 -22.628906 2067.832031 C -21.242188 2068.574219 -19.820312 2069.246094 -18.371094 2069.847656 C -16.917969 2070.449219 -15.4375 2070.976562 -13.933594 2071.433594 C -12.429688 2071.890625 -10.90625 2072.273438 -9.363281 2072.578125 C -7.824219 2072.886719 -6.269531 2073.117188 -4.703125 2073.269531 C -3.140625 2073.425781 -1.570312 2073.5 0 2073.5 C 1.570312 2073.5 3.140625 2073.425781 4.703125 2073.269531 C 6.269531 2073.117188 7.824219 2072.886719 9.363281 2072.578125 C 10.90625 2072.273438 12.429688 2071.890625 13.933594 2071.433594 C 15.4375 2070.976562 16.917969 2070.449219 18.371094 2069.847656 C 19.820312 2069.246094 21.242188 2068.574219 22.628906 2067.832031 C 24.015625 2067.09375 25.359375 2066.285156 26.667969 2065.410156 C 27.976562 2064.539062 29.238281 2063.601562 30.453125 2062.605469 C 31.667969 2061.609375 32.832031 2060.554688 33.941406 2059.441406 C 35.054688 2058.328125 36.109375 2057.167969 37.105469 2055.953125 C 38.101562 2054.734375 39.039062 2053.476562 39.910156 2052.167969 C 40.785156 2050.859375 41.59375 2049.515625 42.332031 2048.128906 C 43.074219 2046.742188 43.746094 2045.320312 44.347656 2043.867188 C 44.949219 2042.417969 45.476562 2040.9375 45.933594 2039.433594 C 46.390625 2037.929688 46.773438 2036.40625 47.078125 2034.863281 C 47.386719 2033.320312 47.617188 2031.769531 47.769531 2030.203125 C 47.925781 2028.640625 48 2027.070312 48 2025.5 C 48 2023.925781 47.925781 2022.359375 47.769531 2020.792969 C 47.617188 2019.230469 47.386719 2017.675781 47.078125 2016.136719 C 46.773438 2014.59375 46.390625 2013.070312 45.933594 2011.566406 C 45.476562 2010.0625 44.949219 2008.582031 44.347656 2007.128906 C 43.746094 2005.675781 43.074219 2004.257812 42.332031 2002.871094 C 41.59375 2001.484375 40.785156 2000.136719 39.910156 1998.832031 C 39.039062 1997.523438 38.101562 1996.261719 37.105469 1995.046875 C 36.109375 1993.832031 35.054688 1992.667969 33.941406 1991.558594 C 32.832031 1990.445312 31.667969 1989.390625 30.453125 1988.394531 C 29.238281 1987.394531 27.976562 1986.460938 26.667969 1985.585938 C 25.359375 1984.714844 24.015625 1983.90625 22.628906 1983.164062 C 21.242188 1982.425781 19.820312 1981.753906 18.371094 1981.152344 C 16.917969 1980.550781 15.4375 1980.019531 13.933594 1979.566406 C 12.429688 1979.109375 10.90625 1978.726562 9.363281 1978.421875 C 7.824219 1978.113281 6.269531 1977.882812 4.703125 1977.730469 C 3.140625 1977.574219 1.570312 1977.496094 0 1977.496094 Z M 0 1977.496094 "/>
</g>
<path style=" stroke:none;fill-rule:nonzero;fill:rgb(49.409485%,85.099792%,34.118652%);fill-opacity:1;" d="M 110.582031 1159.214844 L 304.164062 1175.125 L 288.253906 1368.710938 L 94.671875 1352.796875 Z M 110.582031 1159.214844 "/>
<path style=" stroke:none;fill-rule:nonzero;fill:rgb(32.159424%,32.159424%,32.159424%);fill-opacity:1;" d="M 271.515625 1305.753906 L -6.554688 1263.667969 L -48.640625 1541.738281 L 229.429688 1583.824219 Z M -38.441406 1534.222656 L 0.992188 1273.683594 L 261.53125 1313.117188 L 222.097656 1573.65625 Z M -38.441406 1534.222656 "/>
<g clip-path="url(#clip8)" clip-rule="nonzero">
<path style=" stroke:none;fill-rule:nonzero;fill:rgb(21.958923%,71.369934%,100%);fill-opacity:1;" d="M 803.832031 164.285156 C 767.953125 164.285156 734.164062 150.316406 708.8125 124.910156 C 683.402344 99.558594 669.4375 65.769531 669.4375 29.886719 C 669.4375 -5.992188 683.402344 -39.78125 708.8125 -65.132812 C 734.164062 -90.542969 767.953125 -104.507812 803.832031 -104.507812 C 839.714844 -104.507812 873.503906 -90.542969 898.855469 -65.132812 C 924.265625 -39.726562 938.230469 -5.992188 938.230469 29.886719 C 938.230469 65.769531 924.265625 99.558594 898.855469 124.910156 C 873.503906 150.316406 839.714844 164.285156 803.832031 164.285156 Z M 803.832031 -96.449219 C 770.101562 -96.449219 738.355469 -83.289062 714.503906 -59.441406 C 690.65625 -35.589844 677.496094 -3.84375 677.496094 29.886719 C 677.496094 63.621094 690.65625 95.367188 714.503906 119.21875 C 738.355469 143.066406 770.101562 156.226562 803.832031 156.226562 C 837.566406 156.226562 869.3125 143.066406 893.164062 119.21875 C 917.011719 95.367188 930.171875 63.621094 930.171875 29.886719 C 930.171875 -3.84375 917.011719 -35.589844 893.164062 -59.441406 C 869.3125 -83.289062 837.566406 -96.449219 803.832031 -96.449219 Z M 803.832031 -96.449219 "/>
</g>
</g>
</svg>
